<svg width="268" height="41" viewBox="0 0 268 41" fill="none" xmlns="http://www.w3.org/2000/svg">
<path d="M2 38L31.8708 6.73688L61.013 38" stroke="#F2F2F2" stroke-width="3.68831"/>
<path d="M86.8313 37.4999L115.411 7.18408L144 37.4999" stroke="#F2F2F2" stroke-width="3.68831"/>
<path d="M44.4155 2L74.2863 32.3158L103.429 2" stroke="#F2F2F2" stroke-width="3.68831"/>
<path d="M157.525 4.10645L155.592 10H154.034L156.676 2.89062H157.667L157.525 4.10645ZM159.132 10L157.193 4.10645L157.037 2.89062H158.038L160.694 10H159.132ZM159.044 7.35352V8.50098H155.289V7.35352H159.044ZM167.14 2.89062V10H165.675L162.818 5.23438V10H161.354V2.89062H162.818L165.68 7.66113V2.89062H167.14ZM174.049 6.28418V9.10156C173.938 9.23503 173.767 9.37988 173.536 9.53613C173.305 9.68913 173.007 9.82096 172.643 9.93164C172.278 10.0423 171.837 10.0977 171.319 10.0977C170.86 10.0977 170.442 10.0228 170.064 9.87305C169.687 9.72005 169.361 9.49707 169.088 9.2041C168.818 8.91113 168.609 8.55306 168.463 8.12988C168.316 7.70345 168.243 7.2168 168.243 6.66992V6.22559C168.243 5.67871 168.313 5.19206 168.453 4.76562C168.596 4.33919 168.8 3.97949 169.063 3.68652C169.327 3.39355 169.641 3.17057 170.006 3.01758C170.37 2.86458 170.776 2.78809 171.222 2.78809C171.84 2.78809 172.348 2.889 172.745 3.09082C173.142 3.28939 173.445 3.56608 173.653 3.9209C173.865 4.27246 173.995 4.67611 174.044 5.13184H172.623C172.587 4.89095 172.519 4.68099 172.418 4.50195C172.317 4.32292 172.172 4.18294 171.983 4.08203C171.798 3.98112 171.557 3.93066 171.261 3.93066C171.017 3.93066 170.799 3.98112 170.606 4.08203C170.418 4.17969 170.258 4.32454 170.128 4.5166C169.998 4.70866 169.898 4.94629 169.83 5.22949C169.762 5.5127 169.728 5.84147 169.728 6.21582V6.66992C169.728 7.04102 169.763 7.36979 169.835 7.65625C169.907 7.93945 170.012 8.17871 170.152 8.37402C170.296 8.56608 170.471 8.71094 170.68 8.80859C170.888 8.90625 171.131 8.95508 171.407 8.95508C171.638 8.95508 171.83 8.93555 171.983 8.89648C172.14 8.85742 172.265 8.81022 172.359 8.75488C172.457 8.69629 172.532 8.64095 172.584 8.58887V7.3291H171.246V6.28418H174.049ZM180.865 6.28418V9.10156C180.755 9.23503 180.584 9.37988 180.353 9.53613C180.121 9.68913 179.824 9.82096 179.459 9.93164C179.094 10.0423 178.653 10.0977 178.136 10.0977C177.677 10.0977 177.258 10.0228 176.881 9.87305C176.503 9.72005 176.178 9.49707 175.904 9.2041C175.634 8.91113 175.426 8.55306 175.279 8.12988C175.133 7.70345 175.06 7.2168 175.06 6.66992V6.22559C175.06 5.67871 175.13 5.19206 175.27 4.76562C175.413 4.33919 175.616 3.97949 175.88 3.68652C176.144 3.39355 176.458 3.17057 176.822 3.01758C177.187 2.86458 177.592 2.78809 178.038 2.78809C178.657 2.78809 179.164 2.889 179.562 3.09082C179.959 3.28939 180.261 3.56608 180.47 3.9209C180.681 4.27246 180.812 4.67611 180.86 5.13184H179.439C179.404 4.89095 179.335 4.68099 179.234 4.50195C179.133 4.32292 178.989 4.18294 178.8 4.08203C178.614 3.98112 178.373 3.93066 178.077 3.93066C177.833 3.93066 177.615 3.98112 177.423 4.08203C177.234 4.17969 177.075 4.32454 176.944 4.5166C176.814 4.70866 176.715 4.94629 176.646 5.22949C176.578 5.5127 176.544 5.84147 176.544 6.21582V6.66992C176.544 7.04102 176.58 7.36979 176.651 7.65625C176.723 7.93945 176.829 8.17871 176.969 8.37402C177.112 8.56608 177.288 8.71094 177.496 8.80859C177.704 8.90625 177.947 8.95508 178.224 8.95508C178.455 8.95508 178.647 8.93555 178.8 8.89648C178.956 8.85742 179.081 8.81022 179.176 8.75488C179.273 8.69629 179.348 8.64095 179.4 8.58887V7.3291H178.062V6.28418H180.865ZM182.047 2.89062H184.698C185.242 2.89062 185.709 2.97201 186.1 3.13477C186.493 3.29753 186.796 3.53841 187.008 3.85742C187.219 4.17643 187.325 4.56868 187.325 5.03418C187.325 5.41504 187.26 5.74219 187.13 6.01562C187.003 6.28581 186.822 6.51204 186.588 6.69434C186.357 6.87337 186.085 7.0166 185.772 7.12402L185.309 7.36816H183.004L182.994 6.22559H184.708C184.965 6.22559 185.178 6.18001 185.348 6.08887C185.517 5.99772 185.644 5.87077 185.729 5.70801C185.816 5.54525 185.86 5.35645 185.86 5.1416C185.86 4.91374 185.818 4.7168 185.733 4.55078C185.649 4.38477 185.52 4.25781 185.348 4.16992C185.175 4.08203 184.959 4.03809 184.698 4.03809H183.512V10H182.047V2.89062ZM186.021 10L184.4 6.83105L185.948 6.82129L187.589 9.93164V10H186.021ZM191.344 4.10645L189.41 10H187.853L190.494 2.89062H191.485L191.344 4.10645ZM192.95 10L191.012 4.10645L190.855 2.89062H191.856L194.513 10H192.95ZM192.862 7.35352V8.50098H189.107V7.35352H192.862ZM196.729 2.89062V10H195.27V2.89062H196.729ZM203.888 2.89062V10H202.423L199.566 5.23438V10H198.102V2.89062H199.566L202.428 7.66113V2.89062H203.888ZM206.72 2.89062V10H205.26V2.89062H206.72ZM211.251 2.89062H212.491L214.317 8.11035L216.144 2.89062H217.384L214.815 10H213.819L211.251 2.89062ZM210.582 2.89062H211.817L212.042 7.97852V10H210.582V2.89062ZM216.817 2.89062H218.058V10H216.593V7.97852L216.817 2.89062ZM223.268 2.89062H224.728V7.58789C224.728 8.13477 224.61 8.59538 224.376 8.96973C224.145 9.34408 223.824 9.62565 223.414 9.81445C223.007 10.0033 222.538 10.0977 222.008 10.0977C221.477 10.0977 221.005 10.0033 220.592 9.81445C220.182 9.62565 219.859 9.34408 219.625 8.96973C219.394 8.59538 219.278 8.13477 219.278 7.58789V2.89062H220.743V7.58789C220.743 7.9069 220.794 8.16732 220.895 8.36914C220.995 8.57096 221.14 8.71908 221.329 8.81348C221.521 8.90788 221.747 8.95508 222.008 8.95508C222.275 8.95508 222.501 8.90788 222.687 8.81348C222.875 8.71908 223.019 8.57096 223.116 8.36914C223.217 8.16732 223.268 7.9069 223.268 7.58789V2.89062ZM228.717 6.87988H226.891L226.881 5.87402H228.414C228.684 5.87402 228.906 5.83984 229.078 5.77148C229.251 5.69987 229.379 5.59733 229.464 5.46387C229.552 5.32715 229.596 5.16113 229.596 4.96582C229.596 4.74447 229.553 4.56543 229.469 4.42871C229.387 4.29199 229.259 4.19271 229.083 4.13086C228.91 4.06901 228.688 4.03809 228.414 4.03809H227.398V10H225.934V2.89062H228.414C228.827 2.89062 229.197 2.92969 229.522 3.00781C229.851 3.08594 230.13 3.20475 230.357 3.36426C230.585 3.52376 230.759 3.72559 230.88 3.96973C231 4.21061 231.061 4.49707 231.061 4.8291C231.061 5.12207 230.994 5.39225 230.86 5.63965C230.73 5.88704 230.523 6.08887 230.24 6.24512C229.96 6.40137 229.594 6.48763 229.142 6.50391L228.717 6.87988ZM228.653 10H226.49L227.062 8.85742H228.653C228.91 8.85742 229.12 8.81673 229.283 8.73535C229.446 8.65072 229.566 8.53678 229.645 8.39355C229.723 8.25033 229.762 8.08594 229.762 7.90039C229.762 7.69206 229.726 7.51139 229.654 7.3584C229.586 7.2054 229.475 7.08822 229.322 7.00684C229.169 6.9222 228.967 6.87988 228.717 6.87988H227.306L227.315 5.87402H229.073L229.41 6.26953C229.843 6.26302 230.191 6.33952 230.455 6.49902C230.722 6.65527 230.916 6.85872 231.036 7.10938C231.16 7.36003 231.222 7.62858 231.222 7.91504C231.222 8.37077 231.122 8.75488 230.924 9.06738C230.725 9.37663 230.434 9.60938 230.05 9.76562C229.669 9.92188 229.203 10 228.653 10ZM235.211 4.10645L233.277 10H231.72L234.361 2.89062H235.353L235.211 4.10645ZM236.817 10L234.879 4.10645L234.723 2.89062H235.724L238.38 10H236.817ZM236.729 7.35352V8.50098H232.975V7.35352H236.729ZM239.039 2.89062H241.69C242.234 2.89062 242.701 2.97201 243.092 3.13477C243.486 3.29753 243.788 3.53841 244 3.85742C244.212 4.17643 244.317 4.56868 244.317 5.03418C244.317 5.41504 244.252 5.74219 244.122 6.01562C243.995 6.28581 243.814 6.51204 243.58 6.69434C243.349 6.87337 243.077 7.0166 242.765 7.12402L242.301 7.36816H239.996L239.986 6.22559H241.7C241.957 6.22559 242.171 6.18001 242.34 6.08887C242.509 5.99772 242.636 5.87077 242.721 5.70801C242.809 5.54525 242.853 5.35645 242.853 5.1416C242.853 4.91374 242.81 4.7168 242.726 4.55078C242.641 4.38477 242.512 4.25781 242.34 4.16992C242.167 4.08203 241.951 4.03809 241.69 4.03809H240.504V10H239.039V2.89062ZM243.014 10L241.393 6.83105L242.94 6.82129L244.581 9.93164V10H243.014ZM248.336 4.10645L246.402 10H244.845L247.486 2.89062H248.478L248.336 4.10645ZM249.942 10L248.004 4.10645L247.848 2.89062H248.849L251.505 10H249.942ZM249.854 7.35352V8.50098H246.1V7.35352H249.854ZM253.629 2.89062V10H252.164V2.89062H253.629ZM257.887 2.89062L255.069 6.40137L253.443 8.14941L253.18 6.7627L254.278 5.25879L256.09 2.89062H257.887ZM256.222 10L254.127 6.71387L255.211 5.80566L257.955 10H256.222ZM262.042 6.19629L263.409 5.3125C263.611 5.17904 263.746 5.05046 263.814 4.92676C263.883 4.80306 263.917 4.66471 263.917 4.51172C263.917 4.35872 263.86 4.21712 263.746 4.08691C263.632 3.95345 263.473 3.88672 263.268 3.88672C263.121 3.88672 262.997 3.9209 262.896 3.98926C262.796 4.05436 262.719 4.14225 262.667 4.25293C262.618 4.36361 262.594 4.4873 262.594 4.62402C262.594 4.77051 262.633 4.92025 262.711 5.07324C262.789 5.22298 262.895 5.38249 263.028 5.55176C263.162 5.71777 263.31 5.89844 263.473 6.09375L266.827 10H265.23L262.496 6.83594C262.265 6.54948 262.063 6.28743 261.891 6.0498C261.718 5.80892 261.583 5.57454 261.485 5.34668C261.388 5.11882 261.339 4.88444 261.339 4.64355C261.339 4.27246 261.419 3.94857 261.578 3.67188C261.738 3.39193 261.962 3.17546 262.252 3.02246C262.542 2.86621 262.882 2.78809 263.272 2.78809C263.64 2.78809 263.959 2.86458 264.229 3.01758C264.5 3.16732 264.708 3.36589 264.854 3.61328C265.004 3.86068 265.079 4.13249 265.079 4.42871C265.079 4.65007 265.038 4.85514 264.957 5.04395C264.876 5.22949 264.763 5.40202 264.62 5.56152C264.477 5.71777 264.312 5.86263 264.127 5.99609L262.569 7.10449C262.449 7.21517 262.358 7.32422 262.296 7.43164C262.234 7.53906 262.192 7.6416 262.169 7.73926C262.146 7.83366 262.135 7.9248 262.135 8.0127C262.135 8.2015 262.175 8.37077 262.257 8.52051C262.338 8.67025 262.452 8.78743 262.599 8.87207C262.745 8.95671 262.916 8.99902 263.111 8.99902C263.378 8.99902 263.637 8.94043 263.888 8.82324C264.138 8.70605 264.363 8.53841 264.562 8.32031C264.76 8.09896 264.918 7.83691 265.035 7.53418C265.152 7.23145 265.211 6.89779 265.211 6.5332H266.402C266.402 6.89779 266.367 7.24447 266.295 7.57324C266.223 7.89876 266.108 8.2015 265.948 8.48145C265.789 8.75814 265.577 9.00391 265.313 9.21875C265.294 9.23503 265.266 9.25944 265.23 9.29199C265.198 9.32129 265.17 9.34408 265.147 9.36035C264.835 9.611 264.509 9.79818 264.171 9.92188C263.832 10.0423 263.455 10.1025 263.038 10.1025C262.563 10.1025 262.151 10.0163 261.803 9.84375C261.458 9.67122 261.191 9.43359 261.002 9.13086C260.816 8.82812 260.724 8.48145 260.724 8.09082C260.724 7.80436 260.779 7.55534 260.89 7.34375C261.004 7.12891 261.16 6.93034 261.358 6.74805C261.557 6.56576 261.785 6.38184 262.042 6.19629ZM157.525 17.1064L155.592 23H154.034L156.676 15.8906H157.667L157.525 17.1064ZM159.132 23L157.193 17.1064L157.037 15.8906H158.038L160.694 23H159.132ZM159.044 20.3535V21.501H155.289V20.3535H159.044ZM165.055 21.1396C165.055 21.0127 165.035 20.8988 164.996 20.7979C164.96 20.6937 164.892 20.5993 164.791 20.5146C164.69 20.4268 164.549 20.3405 164.366 20.2559C164.184 20.1712 163.948 20.0833 163.658 19.9922C163.336 19.888 163.03 19.7708 162.74 19.6406C162.454 19.5104 162.2 19.359 161.979 19.1865C161.76 19.0107 161.588 18.8073 161.461 18.5762C161.337 18.3451 161.275 18.0765 161.275 17.7705C161.275 17.4743 161.34 17.2057 161.471 16.9648C161.601 16.7207 161.783 16.5124 162.018 16.3398C162.252 16.1641 162.529 16.029 162.848 15.9346C163.17 15.8402 163.523 15.793 163.907 15.793C164.431 15.793 164.889 15.8874 165.279 16.0762C165.67 16.265 165.973 16.5238 166.188 16.8525C166.406 17.1813 166.515 17.5573 166.515 17.9805H165.06C165.06 17.7721 165.016 17.5898 164.928 17.4336C164.843 17.2741 164.713 17.1488 164.537 17.0576C164.365 16.9665 164.146 16.9209 163.883 16.9209C163.629 16.9209 163.417 16.96 163.248 17.0381C163.079 17.113 162.952 17.2155 162.867 17.3457C162.783 17.4727 162.74 17.6159 162.74 17.7754C162.74 17.8958 162.77 18.0049 162.828 18.1025C162.89 18.2002 162.981 18.2913 163.102 18.376C163.222 18.4606 163.37 18.5404 163.546 18.6152C163.722 18.6901 163.925 18.7633 164.156 18.835C164.544 18.9521 164.884 19.084 165.177 19.2305C165.473 19.377 165.72 19.5413 165.919 19.7236C166.118 19.9059 166.267 20.1126 166.368 20.3438C166.469 20.5749 166.52 20.8369 166.52 21.1299C166.52 21.4391 166.459 21.7158 166.339 21.96C166.218 22.2041 166.044 22.4108 165.816 22.5801C165.589 22.7493 165.317 22.8779 165.001 22.9658C164.685 23.0537 164.332 23.0977 163.941 23.0977C163.59 23.0977 163.243 23.0521 162.901 22.9609C162.56 22.8665 162.249 22.7249 161.969 22.5361C161.692 22.3473 161.471 22.1064 161.305 21.8135C161.139 21.5205 161.056 21.1738 161.056 20.7734H162.525C162.525 20.9948 162.56 21.182 162.628 21.335C162.696 21.488 162.792 21.6117 162.916 21.7061C163.043 21.8005 163.193 21.8688 163.365 21.9111C163.541 21.9535 163.733 21.9746 163.941 21.9746C164.195 21.9746 164.404 21.9388 164.566 21.8672C164.732 21.7956 164.854 21.6963 164.933 21.5693C165.014 21.4424 165.055 21.2992 165.055 21.1396ZM171.217 21.1396C171.217 21.0127 171.197 20.8988 171.158 20.7979C171.122 20.6937 171.054 20.5993 170.953 20.5146C170.852 20.4268 170.711 20.3405 170.528 20.2559C170.346 20.1712 170.11 20.0833 169.82 19.9922C169.498 19.888 169.192 19.7708 168.902 19.6406C168.616 19.5104 168.362 19.359 168.141 19.1865C167.923 19.0107 167.75 18.8073 167.623 18.5762C167.499 18.3451 167.438 18.0765 167.438 17.7705C167.438 17.4743 167.503 17.2057 167.633 16.9648C167.763 16.7207 167.945 16.5124 168.18 16.3398C168.414 16.1641 168.691 16.029 169.01 15.9346C169.332 15.8402 169.685 15.793 170.069 15.793C170.593 15.793 171.051 15.8874 171.441 16.0762C171.832 16.265 172.135 16.5238 172.35 16.8525C172.568 17.1813 172.677 17.5573 172.677 17.9805H171.222C171.222 17.7721 171.178 17.5898 171.09 17.4336C171.005 17.2741 170.875 17.1488 170.699 17.0576C170.527 16.9665 170.309 16.9209 170.045 16.9209C169.791 16.9209 169.579 16.96 169.41 17.0381C169.241 17.113 169.114 17.2155 169.029 17.3457C168.945 17.4727 168.902 17.6159 168.902 17.7754C168.902 17.8958 168.932 18.0049 168.99 18.1025C169.052 18.2002 169.143 18.2913 169.264 18.376C169.384 18.4606 169.532 18.5404 169.708 18.6152C169.884 18.6901 170.087 18.7633 170.318 18.835C170.706 18.9521 171.046 19.084 171.339 19.2305C171.635 19.377 171.882 19.5413 172.081 19.7236C172.28 19.9059 172.429 20.1126 172.53 20.3438C172.631 20.5749 172.682 20.8369 172.682 21.1299C172.682 21.4391 172.621 21.7158 172.501 21.96C172.381 22.2041 172.206 22.4108 171.979 22.5801C171.751 22.7493 171.479 22.8779 171.163 22.9658C170.847 23.0537 170.494 23.0977 170.104 23.0977C169.752 23.0977 169.405 23.0521 169.063 22.9609C168.722 22.8665 168.411 22.7249 168.131 22.5361C167.854 22.3473 167.633 22.1064 167.467 21.8135C167.301 21.5205 167.218 21.1738 167.218 20.7734H168.688C168.688 20.9948 168.722 21.182 168.79 21.335C168.858 21.488 168.954 21.6117 169.078 21.7061C169.205 21.8005 169.355 21.8688 169.527 21.9111C169.703 21.9535 169.895 21.9746 170.104 21.9746C170.357 21.9746 170.566 21.9388 170.729 21.8672C170.895 21.7956 171.017 21.6963 171.095 21.5693C171.176 21.4424 171.217 21.2992 171.217 21.1396ZM179.518 19.2793V19.6162C179.518 20.1566 179.444 20.6416 179.298 21.0713C179.151 21.501 178.945 21.8672 178.678 22.1699C178.411 22.4694 178.092 22.6989 177.721 22.8584C177.353 23.0179 176.944 23.0977 176.495 23.0977C176.049 23.0977 175.641 23.0179 175.27 22.8584C174.902 22.6989 174.583 22.4694 174.312 22.1699C174.042 21.8672 173.832 21.501 173.683 21.0713C173.536 20.6416 173.463 20.1566 173.463 19.6162V19.2793C173.463 18.7357 173.536 18.2507 173.683 17.8242C173.829 17.3945 174.036 17.0283 174.303 16.7256C174.573 16.4229 174.892 16.1917 175.26 16.0322C175.631 15.8727 176.039 15.793 176.485 15.793C176.935 15.793 177.343 15.8727 177.711 16.0322C178.082 16.1917 178.401 16.4229 178.668 16.7256C178.938 17.0283 179.146 17.3945 179.293 17.8242C179.443 18.2507 179.518 18.7357 179.518 19.2793ZM178.038 19.6162V19.2695C178.038 18.8919 178.004 18.5599 177.936 18.2734C177.867 17.987 177.766 17.7461 177.633 17.5508C177.499 17.3555 177.337 17.209 177.145 17.1113C176.952 17.0104 176.733 16.96 176.485 16.96C176.238 16.96 176.018 17.0104 175.826 17.1113C175.637 17.209 175.476 17.3555 175.343 17.5508C175.213 17.7461 175.113 17.987 175.045 18.2734C174.977 18.5599 174.942 18.8919 174.942 19.2695V19.6162C174.942 19.9906 174.977 20.3226 175.045 20.6123C175.113 20.8988 175.214 21.1413 175.348 21.3398C175.481 21.5352 175.644 21.6833 175.836 21.7842C176.028 21.8851 176.248 21.9355 176.495 21.9355C176.743 21.9355 176.962 21.8851 177.154 21.7842C177.346 21.6833 177.507 21.5352 177.638 21.3398C177.768 21.1413 177.867 20.8988 177.936 20.6123C178.004 20.3226 178.038 19.9906 178.038 19.6162ZM184.693 20.6416H186.153C186.124 21.1201 185.992 21.5449 185.758 21.916C185.527 22.2871 185.203 22.5768 184.786 22.7852C184.373 22.9935 183.875 23.0977 183.292 23.0977C182.836 23.0977 182.428 23.0195 182.066 22.8633C181.705 22.7038 181.396 22.4759 181.139 22.1797C180.885 21.8835 180.691 21.5254 180.558 21.1055C180.424 20.6855 180.357 20.2152 180.357 19.6943V19.2012C180.357 18.6803 180.426 18.21 180.562 17.79C180.702 17.3669 180.901 17.0072 181.158 16.7109C181.419 16.4147 181.729 16.1868 182.091 16.0273C182.452 15.8678 182.856 15.7881 183.302 15.7881C183.894 15.7881 184.394 15.8955 184.801 16.1104C185.211 16.3252 185.528 16.6214 185.753 16.999C185.981 17.3766 186.118 17.8063 186.163 18.2881H184.698C184.682 18.0016 184.625 17.7591 184.527 17.5605C184.43 17.3587 184.282 17.2074 184.083 17.1064C183.888 17.0023 183.627 16.9502 183.302 16.9502C183.058 16.9502 182.844 16.9958 182.662 17.0869C182.48 17.1781 182.327 17.3164 182.203 17.502C182.079 17.6875 181.987 17.9219 181.925 18.2051C181.866 18.485 181.837 18.8138 181.837 19.1914V19.6943C181.837 20.0622 181.865 20.3861 181.92 20.666C181.975 20.9427 182.06 21.1771 182.174 21.3691C182.291 21.5579 182.441 21.7012 182.623 21.7988C182.809 21.8932 183.032 21.9404 183.292 21.9404C183.598 21.9404 183.85 21.8916 184.049 21.7939C184.247 21.6963 184.399 21.5514 184.503 21.3594C184.61 21.1673 184.674 20.9281 184.693 20.6416ZM188.673 15.8906V23H187.213V15.8906H188.673ZM193.023 17.1064L191.09 23H189.532L192.174 15.8906H193.165L193.023 17.1064ZM194.63 23L192.691 17.1064L192.535 15.8906H193.536L196.192 23H194.63ZM194.542 20.3535V21.501H190.787V20.3535H194.542ZM199.425 15.8906V23H197.965V15.8906H199.425ZM201.612 15.8906V17.0381H195.812V15.8906H201.612ZM207.218 21.8574V23H203.434V21.8574H207.218ZM203.912 15.8906V23H202.447V15.8906H203.912ZM206.725 18.7861V19.8994H203.434V18.7861H206.725ZM207.213 15.8906V17.0381H203.434V15.8906H207.213Z" fill="#F2F2F2"/>
<path d="M158.685 37.9717V39H155.463V37.9717H158.685ZM155.89 32.6016V39H154.571V32.6016H155.89ZM162.13 33.6958L160.39 39H158.988L161.365 32.6016H162.257L162.13 33.6958ZM163.576 39L161.831 33.6958L161.69 32.6016H162.591L164.982 39H163.576ZM163.497 36.6182V37.6509H160.117V36.6182H163.497ZM166.898 37.9849L168.172 32.6016H168.884L169.047 33.498L167.689 39H166.924L166.898 37.9849ZM166.243 32.6016L167.298 37.9849L167.21 39H166.357L164.938 32.6016H166.243ZM170.167 37.9629L171.209 32.6016H172.514L171.099 39H170.247L170.167 37.9629ZM169.284 32.6016L170.567 38.0068L170.532 39H169.768L168.401 33.4937L168.577 32.6016H169.284ZM174.549 32.6016V39H173.23V32.6016H174.549ZM177.098 35.335V36.3633H174.188V35.335H177.098ZM177.405 32.6016V33.6343H174.188V32.6016H177.405ZM179.572 32.6016V39H178.258V32.6016H179.572ZM180.807 32.6016H183.193C183.682 32.6016 184.103 32.6748 184.454 32.8213C184.809 32.9678 185.081 33.1846 185.271 33.4717C185.462 33.7588 185.557 34.1118 185.557 34.5308C185.557 34.8735 185.499 35.168 185.381 35.4141C185.267 35.6572 185.104 35.8608 184.894 36.0249C184.686 36.186 184.441 36.3149 184.16 36.4116L183.742 36.6313H181.668L181.659 35.603H183.202C183.433 35.603 183.625 35.562 183.777 35.48C183.93 35.3979 184.044 35.2837 184.12 35.1372C184.199 34.9907 184.239 34.8208 184.239 34.6274C184.239 34.4224 184.201 34.2451 184.125 34.0957C184.048 33.9463 183.933 33.832 183.777 33.7529C183.622 33.6738 183.427 33.6343 183.193 33.6343H182.125V39H180.807V32.6016ZM184.384 39L182.925 36.1479L184.318 36.1392L185.794 38.9385V39H184.384ZM187.174 32.6016H188.291L189.934 37.2993L191.578 32.6016H192.694L190.382 39H189.486L187.174 32.6016ZM186.572 32.6016H187.684L187.886 37.1807V39H186.572V32.6016ZM192.184 32.6016H193.3V39H191.982V37.1807L192.184 32.6016Z" fill="#F2F2F2"/>
</svg>
