<svg width="24" height="25" viewBox="0 0 24 25" fill="none" xmlns="http://www.w3.org/2000/svg">
<g clip-path="url(#clip0_383_2287)">
<path d="M18.0095 4.00479C19.3805 4.00479 20.4951 5.11751 20.4951 6.49041V19.0144C20.4951 20.3853 19.3805 21.5 18.0095 21.5H5.4856C4.1127 21.5 3 20.3854 3 19.0144V6.49041C3 5.1175 4.11269 4.00479 5.4856 4.00479H7.85975H15.6354H18.0095Z" fill="#232629"/>
<path d="M16.4354 1.5C16.4354 1.05817 16.0772 0.7 15.6354 0.7C15.1935 0.7 14.8354 1.05817 14.8354 1.5H16.4354ZM8.65975 1.5C8.65975 1.05817 8.30158 0.7 7.85975 0.7C7.41792 0.7 7.05975 1.05817 7.05975 1.5H8.65975ZM21.2951 6.49041C21.2951 4.67528 19.8219 3.20479 18.0095 3.20479V4.80479C18.939 4.80479 19.6951 5.55973 19.6951 6.49041H21.2951ZM21.2951 19.0144V6.49041H19.6951V19.0144H21.2951ZM18.0095 22.3C19.8223 22.3 21.2951 20.8272 21.2951 19.0144H19.6951C19.6951 19.9435 18.9386 20.7 18.0095 20.7V22.3ZM5.4856 22.3H18.0095V20.7H5.4856V22.3ZM2.2 19.0144C2.2 20.8268 3.67047 22.3 5.4856 22.3V20.7C4.55494 20.7 3.8 19.9439 3.8 19.0144H2.2ZM2.2 6.49041V19.0144H3.8V6.49041H2.2ZM5.4856 3.20479C3.67086 3.20479 2.2 4.67567 2.2 6.49041H3.8C3.8 5.55932 4.55453 4.80479 5.4856 4.80479V3.20479ZM15.6354 3.20479H7.85975V4.80479H15.6354V3.20479ZM16.4354 4.00479V1.5H14.8354V4.00479H16.4354ZM18.0095 3.20479H15.6354V4.80479H18.0095V3.20479ZM7.85975 3.20479H5.4856V4.80479H7.85975V3.20479ZM7.05975 1.5V4.00479H8.65975V1.5H7.05975Z" fill="#232629"/>
<path d="M8.56569 13.9343C8.25327 13.6219 7.74673 13.6219 7.43431 13.9343C7.1219 14.2467 7.1219 14.7533 7.43431 15.0657L8.56569 13.9343ZM11 17.5L10.4343 18.0657C10.7467 18.3781 11.2533 18.3781 11.5657 18.0657L11 17.5ZM16.5657 13.0657C16.8781 12.7533 16.8781 12.2467 16.5657 11.9343C16.2533 11.6219 15.7467 11.6219 15.4343 11.9343L16.5657 13.0657ZM7.43431 15.0657L10.4343 18.0657L11.5657 16.9343L8.56569 13.9343L7.43431 15.0657ZM11.5657 18.0657L16.5657 13.0657L15.4343 11.9343L10.4343 16.9343L11.5657 18.0657Z" fill="white"/>
<path d="M3 6.7H2.2V8.3H3V6.7ZM21 8.3H21.8V6.7H21V8.3ZM3 8.3H21V6.7H3V8.3Z" fill="white"/>
</g>
<defs>
<clipPath id="clip0_383_2287">
<rect width="24" height="24" fill="white" transform="translate(0 0.5)"/>
</clipPath>
</defs>
</svg>
