<svg width="24" height="24" viewBox="0 0 24 24" fill="none" xmlns="http://www.w3.org/2000/svg">
<path d="M16 3V2.2V3ZM5.55734 3L5.55734 2.2H5.55734V3ZM8 3L8 3.8H8V3ZM21.8 5.55735C21.8 3.70259 20.2946 2.2 18.4427 2.2V3.8C19.4118 3.8 20.2 4.58705 20.2 5.55735H21.8ZM21.8 18.4427V5.55735H20.2V18.4427H21.8ZM18.4427 21.8001C20.295 21.8001 21.8 20.2951 21.8 18.4427H20.2C20.2 19.4114 19.4113 20.2001 18.4427 20.2001V21.8001ZM5.55734 21.8001H18.4427V20.2001H5.55734V21.8001ZM2.2 18.4427C2.2 20.2947 3.70258 21.8001 5.55734 21.8001V20.2001C4.58705 20.2001 3.8 19.4119 3.8 18.4427H2.2ZM2.2 5.55735V18.4427H3.8V5.55735H2.2ZM5.55734 2.2C3.70297 2.2 2.2 3.70299 2.2 5.55735H3.8C3.8 4.58664 4.58664 3.8 5.55734 3.8V2.2ZM16 2.2L8 2.2L8 3.8L16 3.8L16 2.2ZM18.4427 2.2H16V3.8H18.4427V2.2ZM8 2.2L5.55734 2.2L5.55733 3.8L8 3.8L8 2.2Z" fill="#888A8B"/>
<path d="M8.56569 12.4343C8.25327 12.1219 7.74673 12.1219 7.43431 12.4343C7.1219 12.7467 7.1219 13.2533 7.43431 13.5657L8.56569 12.4343ZM11 16L10.4343 16.5657C10.7467 16.8781 11.2533 16.8781 11.5657 16.5657L11 16ZM16.5657 11.5657C16.8781 11.2533 16.8781 10.7467 16.5657 10.4343C16.2533 10.1219 15.7467 10.1219 15.4343 10.4343L16.5657 11.5657ZM7.43431 13.5657L10.4343 16.5657L11.5657 15.4343L8.56569 12.4343L7.43431 13.5657ZM11.5657 16.5657L16.5657 11.5657L15.4343 10.4343L10.4343 15.4343L11.5657 16.5657Z" fill="#888A8B"/>
<path d="M3 5.69512H2.2V7.29512H3V5.69512ZM20 7.29512H20.8V5.69512H20V7.29512ZM3 7.29512H20V5.69512H3V7.29512Z" fill="#888A8B"/>
</svg>
