<svg width="20" height="22" viewBox="0 0 20 22" fill="none" xmlns="http://www.w3.org/2000/svg">
<path d="M6.53125 2.75H12.7188V1.03125C12.7188 0.461914 13.1785 0 13.75 0C14.3215 0 14.7812 0.461914 14.7812 1.03125V2.75H16.5C18.0168 2.75 19.25 3.98105 19.25 5.5V19.25C19.25 20.7668 18.0168 22 16.5 22H2.75C1.23105 22 0 20.7668 0 19.25V5.5C0 3.98105 1.23105 2.75 2.75 2.75H4.46875V1.03125C4.46875 0.461914 4.92852 0 5.5 0C6.07148 0 6.53125 0.461914 6.53125 1.03125V2.75ZM2.0625 19.25C2.0625 19.6281 2.37016 19.9375 2.75 19.9375H16.5C16.8781 19.9375 17.1875 19.6281 17.1875 19.25V8.25H2.0625V19.25Z" fill="#77787A"/>
</svg>
