<svg width="24" height="24" viewBox="0 0 24 24" fill="none" xmlns="http://www.w3.org/2000/svg">
<path d="M2.1562 20.2592C1.99673 20.4326 1.96971 20.7246 2.0621 20.9401C2.13107 21.1595 2.32379 21.2958 2.55838 21.2958C5.0593 21.2958 7.00545 20.2497 8.25219 19.3984L8.25596 19.3969L8.62025 19.3424L8.62431 19.3427C9.81732 19.7143 11.1092 19.9306 12.46 19.9306C18.3452 19.9306 22.92 16.071 22.92 11.5229C22.92 6.96851 18.3375 3 12.46 3C6.57612 3 2 6.85818 2 11.4461C2 13.3508 2.97723 15.303 4.3208 16.7312C4.32319 16.7337 4.32394 16.7373 4.3227 16.7406C3.98633 17.6316 3.38079 18.69 2.95716 19.2736C2.74373 19.5676 2.54987 19.8081 2.40717 19.9769C2.3358 20.0614 2.19883 20.2119 2.1562 20.2592ZM2.1562 20.2592C2.14959 20.2662 2.16222 20.2531 2.1562 20.2592ZM2.1562 20.2592C2.13497 20.2827 2.16973 20.2448 2.1562 20.2592Z" stroke="#888A8B" stroke-width="1.6" stroke-linecap="round" stroke-linejoin="round"/>
<circle cx="12.7" cy="11.2" r="1.2" fill="#888A8B"/>
<circle cx="16.7" cy="11.2" r="1.2" fill="#888A8B"/>
<circle cx="8.7" cy="11.2" r="1.2" fill="#888A8B"/>
</svg>
