<svg width="24" height="24" viewBox="0 0 18 20" fill="none" xmlns="http://www.w3.org/2000/svg">
<path fill-rule="evenodd" clip-rule="evenodd" d="M0.772119 6.39946C0.284946 6.77837 0 7.36099 0 7.97817V18C0 18.5304 0.210714 19.0391 0.585786 19.4142C0.960859 19.7893 1.46957 20 2 20H5.5C6.05228 20 6.5 19.5523 6.5 19V18V13C6.5 11.8955 7.39543 11 8.5 11H9.5C10.6046 11 11.5 11.8955 11.5 13V18V19C11.5 19.5523 11.9477 20 12.5 20H16C16.5304 20 17.0391 19.7893 17.4142 19.4142C17.7893 19.0391 18 18.5304 18 18V7.97817C18 7.36099 17.7151 6.77838 17.2279 6.39946L10.2279 0.955018C9.50566 0.393291 8.49434 0.393289 7.77212 0.955017L0.772119 6.39946Z" fill="#232629"/>
</svg>
