<svg width="24" height="24" viewBox="0 0 24 24" fill="none" xmlns="http://www.w3.org/2000/svg">
<path d="M20.4983 11.4494L12.4619 19.4858C11.4774 20.4703 10.1421 21.0234 8.74977 21.0234C7.35744 21.0234 6.02214 20.4703 5.03762 19.4858C4.0531 18.5013 3.5 17.166 3.5 15.7737C3.5 14.3813 4.0531 13.046 5.03762 12.0615L13.074 4.02508C13.7304 3.36873 14.6206 3 15.5488 3C16.477 3 17.3672 3.36873 18.0236 4.02508C18.6799 4.68143 19.0487 5.57163 19.0487 6.49984C19.0487 7.42806 18.6799 8.31826 18.0236 8.97461L9.9784 17.011C9.65023 17.3392 9.20513 17.5236 8.74102 17.5236C8.27691 17.5236 7.83181 17.3392 7.50364 17.011C7.17547 16.6829 6.9911 16.2378 6.9911 15.7737C6.9911 15.3095 7.17547 14.8644 7.50364 14.5363L14.9279 7.12072" stroke="#888A8B" stroke-width="1.7" stroke-linecap="round" stroke-linejoin="round"/>
</svg>
