<svg width="28" height="28" viewBox="0 0 28 28" fill="none" xmlns="http://www.w3.org/2000/svg">
<g clip-path="url(#clip0_274_13804)">
<rect width="28" height="28" rx="14" fill="#D4AF70"/>
<path d="M22.6033 7.35352V12.4855H17.4713" stroke="white" stroke-width="1.6" stroke-linecap="round" stroke-linejoin="round"/>
<path d="M20.4564 16.7624C19.9004 18.3362 18.848 19.6866 17.4577 20.6102C16.0675 21.5337 14.4147 21.9804 12.7485 21.883C11.0822 21.7855 9.49283 21.1491 8.21975 20.0697C6.94666 18.9903 6.05888 17.5264 5.69018 15.8986C5.32147 14.2707 5.49183 12.5671 6.17558 11.0445C6.85932 9.52192 8.01941 8.26279 9.48103 7.45687C10.9426 6.65095 12.6266 6.3419 14.2791 6.5763C15.9317 6.8107 17.4633 7.57584 18.6431 8.75644L22.6033 12.4857" stroke="white" stroke-width="1.6" stroke-linecap="round" stroke-linejoin="round"/>
</g>
<defs>
<clipPath id="clip0_274_13804">
<rect width="28" height="28" fill="white"/>
</clipPath>
</defs>
</svg>
