<svg width="24" height="24" viewBox="0 0 24 24" fill="none" xmlns="http://www.w3.org/2000/svg">
<path d="M21.9961 4.61121L20.4508 8.59338L16.4686 7.04809" stroke="#5A5C5F" stroke-width="1.6" stroke-linecap="round" stroke-linejoin="round"/>
<path d="M20.6728 14.8124C19.9787 16.7772 18.6647 18.4632 16.929 19.6162C15.1933 20.7693 13.1298 21.327 11.0496 21.2053C8.96932 21.0836 6.98497 20.2891 5.39555 18.9415C3.80612 17.5939 2.69775 15.7663 2.23743 13.7339C1.77711 11.7016 1.9898 9.57469 2.84344 7.67375C3.69709 5.77281 5.14543 4.20081 6.97023 3.19463C8.79503 2.18845 10.8974 1.80262 12.9606 2.09526C15.0237 2.3879 18.0138 3.19463 19.6156 7.3373" stroke="#5A5C5F" stroke-width="1.6" stroke-linecap="round" stroke-linejoin="round"/>
<path d="M14.0982 10.0071H9.11475C8.72157 10.0071 8.40283 10.4852 8.40283 11.075V14.8125C8.40283 15.4023 8.72157 15.8804 9.11475 15.8804H14.0982C14.4913 15.8804 14.8101 15.4023 14.8101 14.8125V11.075C14.8101 10.4852 14.4913 10.0071 14.0982 10.0071Z" stroke="#5A5C5F" stroke-width="1.6" stroke-linecap="round" stroke-linejoin="round"/>
<path d="M9.4707 10.0071V8.34688C9.47017 7.83224 9.66844 7.33576 10.027 6.95383C10.3856 6.5719 10.8789 6.33176 11.4112 6.28004C11.9435 6.22832 12.4768 6.3687 12.9075 6.67394C13.3383 6.97917 13.6357 7.42748 13.7422 7.93183" stroke="#5A5C5F" stroke-width="1.6" stroke-linecap="round" stroke-linejoin="round"/>
</svg>
