<svg width="20" height="20" viewBox="0 0 20 20" fill="none" xmlns="http://www.w3.org/2000/svg">
<circle cx="10" cy="10" r="10" fill="#E3292C"/>
<path fill-rule="evenodd" clip-rule="evenodd" d="M13.5573 7.57444C13.8698 7.26202 13.8698 6.75549 13.5573 6.44307C13.2449 6.13065 12.7384 6.13065 12.426 6.44307L10.0002 8.86882L7.57447 6.44307C7.26205 6.13065 6.75552 6.13065 6.4431 6.44307C6.13068 6.75549 6.13068 7.26202 6.4431 7.57444L8.86884 10.0002L6.44305 12.426C6.13064 12.7384 6.13064 13.2449 6.44305 13.5573C6.75547 13.8698 7.26201 13.8698 7.57443 13.5573L10.0002 11.1316L12.426 13.5573C12.7384 13.8698 13.245 13.8698 13.5574 13.5573C13.8698 13.2449 13.8698 12.7384 13.5574 12.426L11.1316 10.0002L13.5573 7.57444Z" fill="#F6F6F6"/>
</svg>
